<svg width="63" height="71" viewBox="0 0 63 71" fill="none" xmlns="http://www.w3.org/2000/svg">
<path fill-rule="evenodd" clip-rule="evenodd" d="M35.2014 35.1932L62.7798 51.1189V19.2463L35.2014 35.1932ZM42.7612 35.1932L58.9788 44.5625V25.8027L42.7612 35.1932Z" fill="#040404"/>
<path fill-rule="evenodd" clip-rule="evenodd" d="M33.28 31.8726L60.8373 15.9257L33.28 0V31.8726ZM37.0599 25.3162L53.2564 15.9257L37.081 6.5564L37.0599 25.3162Z" fill="#040404"/>
<path fill-rule="evenodd" clip-rule="evenodd" d="M29.4788 31.8937L29.4577 0L1.90039 15.9468L29.4788 31.8937ZM25.6778 25.3162L25.6567 6.57755L9.48128 15.9468L25.6778 25.3162Z" fill="#040404"/>
<path fill-rule="evenodd" clip-rule="evenodd" d="M27.5784 35.193L0 19.2673V51.1187L27.5784 35.193ZM19.9975 35.193L3.77989 25.8237V44.5623L19.9975 35.193Z" fill="#040404"/>
<path fill-rule="evenodd" clip-rule="evenodd" d="M29.4791 38.4922L1.92188 54.439L29.4791 70.3647V38.4922ZM25.6993 45.0697L9.50276 54.4602L25.6993 63.8295V45.0697Z" fill="#040404"/>
<path fill-rule="evenodd" clip-rule="evenodd" d="M33.28 38.4922L33.3011 70.3647L60.8584 54.439L33.28 38.4922ZM37.081 45.0697L37.1021 63.8083L53.2986 54.439L37.081 45.0697Z" fill="#040404"/>
</svg>
