<svg width="16" height="16" viewBox="0 0 16 16" fill="none" xmlns="http://www.w3.org/2000/svg">
<path d="M8.15465 0C6.01855 0 4.28064 1.70956 4.28064 3.81092C4.28064 5.91229 6.01849 7.62185 8.15465 7.62185C10.2908 7.62185 12.0287 5.91229 12.0287 3.81092C12.0287 1.70956 10.2908 0 8.15465 0ZM8.15465 6.72855C6.51921 6.72855 5.18872 5.41967 5.18872 3.81092C5.18872 2.20218 6.51921 0.893295 8.15465 0.893295C9.79008 0.893295 11.1206 2.20218 11.1206 3.81092C11.1206 5.41967 9.79008 6.72855 8.15465 6.72855Z" fill="#8E8E8E"/>
<path d="M11.4608 8.46802H4.53916C2.03628 8.46802 0 10.4711 0 12.9333V15.1028C0 15.5975 0.409199 16.0001 0.912168 16.0001H6.96403C7.21477 16.0001 6.96403 15.8001 6.96403 15.5534C6.96403 15.3068 7.21477 15.1068 6.96403 15.1068L4.11936 15.1061V13.0141C4.11936 12.7675 3.91606 12.5675 3.66532 12.5675C3.41457 12.5675 3.21128 12.7675 3.21128 13.0141V15.1051L0.908022 15.1028V12.9333C0.908022 10.9636 2.53694 9.36125 4.53916 9.36125H11.4609C13.4631 9.36125 15.092 10.9636 15.092 12.9333L15.0879 15.1068H12.7651V13.0141C12.7651 12.7675 12.5618 12.5675 12.311 12.5675C12.0603 12.5675 11.857 12.7675 11.857 13.0141V15.1068H6.96403C6.71328 15.1068 4.78481 15.3068 4.78481 15.5534C4.78481 15.8001 6.71328 16.0001 6.96403 16.0001H15.0878C15.5908 16.0001 16 15.5975 16 15.1028V12.9333C16 10.4711 13.9637 8.46802 11.4608 8.46802Z" fill="#8E8E8E"/>
</svg>
