<svg width="85" height="96" viewBox="0 0 85 96" fill="none" xmlns="http://www.w3.org/2000/svg">
<path fill-rule="evenodd" clip-rule="evenodd" d="M47.6602 48.0146L84.9995 69.7423V26.2581L47.6602 48.0146ZM57.8956 48.0146L79.8532 60.7973V35.2031L57.8956 48.0146Z" fill="black"/>
<path fill-rule="evenodd" clip-rule="evenodd" d="M45.0586 43.4843L82.3694 21.7277L45.0586 0V43.4843ZM50.1763 34.5393L72.1054 21.7277L50.2049 8.945L50.1763 34.5393Z" fill="black"/>
<path fill-rule="evenodd" clip-rule="evenodd" d="M39.9117 43.5131L39.8831 0L2.57227 21.7566L39.9117 43.5131ZM34.7653 34.5393L34.7368 8.97386L12.8363 21.7566L34.7653 34.5393Z" fill="black"/>
<path fill-rule="evenodd" clip-rule="evenodd" d="M37.3394 48.0143L0 26.2866V69.742L37.3394 48.0143ZM27.0753 48.0143L5.11773 35.2316V60.797L27.0753 48.0143Z" fill="black"/>
<path fill-rule="evenodd" clip-rule="evenodd" d="M39.9124 52.5159L2.60156 74.2724L39.9124 96.0001V52.5159ZM34.7946 61.4897L12.8656 74.3013L34.7946 87.084V61.4897Z" fill="black"/>
<path fill-rule="evenodd" clip-rule="evenodd" d="M45.0586 52.5159L45.0872 96.0001L82.398 74.2724L45.0586 52.5159ZM50.2049 61.4897L50.2335 87.0551L72.1625 74.2724L50.2049 61.4897Z" fill="black"/>
</svg>
