<svg width="215" height="77" viewBox="0 0 215 77" fill="none" xmlns="http://www.w3.org/2000/svg">
<g clip-path="url(#clip0)">
<path fill-rule="evenodd" clip-rule="evenodd" d="M38.5692 38.5L68.7832 55.9206V21.0602L38.5692 38.5ZM46.8625 38.5L64.6327 48.7458V28.2388L46.8625 38.5Z" fill="white"/>
<path fill-rule="evenodd" clip-rule="evenodd" d="M36.4803 34.8836L66.675 17.4283L36.4803 0V34.8836ZM40.627 27.6973L58.3856 17.4321L40.627 7.17862V27.6973Z" fill="white"/>
<path fill-rule="evenodd" clip-rule="evenodd" d="M32.3028 34.8836L32.2835 0.0115967L2.09265 17.4399L32.3028 34.8836ZM28.1523 27.7011L28.1407 7.19022L10.3821 17.4399L28.1523 27.7011Z" fill="white"/>
<path fill-rule="evenodd" clip-rule="evenodd" d="M30.214 38.5L0 21.0833V55.9399L30.214 38.5ZM21.9169 38.5039L4.14664 28.2581V48.7613L21.9169 38.5039Z" fill="#FFE535"/>
<path fill-rule="evenodd" clip-rule="evenodd" d="M32.3028 42.1164L2.10815 59.5717L32.299 77L32.3028 42.1164ZM28.1562 49.3028L10.3976 59.5679L28.1562 69.8214V49.3028Z" fill="white"/>
<path fill-rule="evenodd" clip-rule="evenodd" d="M36.4803 42.1164L36.4997 76.9884L66.6905 59.5601L36.4803 42.1164ZM40.6309 49.2989L40.6425 69.8098L58.4011 59.5563L40.6309 49.2989Z" fill="white"/>
<path d="M86.6812 69.86H89.9652C90.6344 69.86 91.1179 70.0109 91.408 70.3125C91.6981 70.6142 91.8451 71.0552 91.8451 71.6353C91.8451 72.1072 91.7484 72.4824 91.5589 72.757C91.3655 73.0355 91.0599 73.2134 90.6344 73.2946V73.3372C91.1218 73.4261 91.4544 73.6156 91.6401 73.9019C91.8258 74.1881 91.9186 74.5749 91.9186 75.0622C91.9186 75.6346 91.7755 76.091 91.4931 76.4198C91.2107 76.7524 90.6924 76.9187 89.9381 76.9187H86.685V69.86H86.6812ZM90.646 72.6603C90.8549 72.4746 90.9593 72.1923 90.9593 71.8094C90.9593 71.5232 90.9206 71.2988 90.8471 71.1441C90.7698 70.9855 90.6421 70.8695 90.4603 70.796C90.2785 70.7187 90.0155 70.6839 89.6751 70.6839H87.5592V72.9426H89.6751C90.1161 72.9388 90.4371 72.846 90.646 72.6603ZM90.5145 75.9827C90.704 75.9092 90.8355 75.7855 90.9129 75.6192C90.9903 75.4528 91.0328 75.2208 91.0328 74.9268C91.0328 74.5014 90.9322 74.2035 90.735 74.0256C90.5377 73.8477 90.1973 73.7588 89.7176 73.7588H87.5631V76.0988H89.7176C90.0619 76.0988 90.3249 76.0601 90.5145 75.9827Z" fill="white"/>
<path d="M98.2584 76.9187V74.25L95.7015 69.8561H96.6454L98.6877 73.2946H98.7612L100.792 69.8561H101.716L99.1403 74.25V76.9187H98.2584Z" fill="white"/>
<path d="M116.071 76.9187L115.344 75.039H112.164L111.437 76.9187H110.544L113.213 69.86H114.323L116.992 76.9187H116.071ZM113.773 70.8115H113.723L112.431 74.2074H115.069L113.773 70.8115Z" fill="white"/>
<path d="M125.749 76.9187L124.651 74.1494H124.477H122.26V76.9187H121.378V69.86H124.62C125.181 69.86 125.606 69.949 125.892 70.1269C126.179 70.3048 126.368 70.5446 126.457 70.8463C126.546 71.148 126.589 71.5348 126.589 72.0066C126.589 72.494 126.515 72.9156 126.372 73.2753C126.229 73.635 125.935 73.8787 125.49 74.0102L126.689 76.9265H125.749V76.9187ZM125.219 73.1902C125.428 73.0974 125.56 72.962 125.618 72.7841C125.676 72.6061 125.707 72.347 125.707 72.0028C125.707 71.6547 125.68 71.3917 125.626 71.2137C125.571 71.0358 125.448 70.9043 125.25 70.8154C125.057 70.7264 124.747 70.6839 124.322 70.6839H122.26V73.3294H124.252C124.689 73.3256 125.014 73.2791 125.219 73.1902Z" fill="white"/>
<path d="M135.826 76.9187L134.727 74.1494H134.553H132.337V76.9187H131.455V69.86H134.696C135.257 69.86 135.683 69.949 135.969 70.1269C136.255 70.3048 136.445 70.5446 136.534 70.8463C136.623 71.148 136.665 71.5348 136.665 72.0066C136.665 72.494 136.592 72.9156 136.449 73.2753C136.305 73.635 136.011 73.8787 135.567 74.0102L136.766 76.9265H135.826V76.9187ZM135.3 73.1902C135.509 73.0974 135.64 72.962 135.698 72.7841C135.756 72.6061 135.787 72.347 135.787 72.0028C135.787 71.6547 135.76 71.3917 135.706 71.2137C135.652 71.0358 135.528 70.9043 135.331 70.8154C135.137 70.7264 134.828 70.6839 134.402 70.6839H132.341V73.3294H134.333C134.766 73.3256 135.091 73.2791 135.3 73.1902Z" fill="white"/>
<path d="M142.2 76.7254C141.81 76.5397 141.562 76.2187 141.458 75.7545C141.353 75.2943 141.299 74.5052 141.299 73.3874C141.299 72.2735 141.353 71.4845 141.458 71.0204C141.562 70.5601 141.81 70.2352 142.2 70.0495C142.591 69.8639 143.256 69.7711 144.193 69.7711C145.125 69.7711 145.786 69.8639 146.177 70.0495C146.571 70.2352 146.819 70.5562 146.927 71.0204C147.032 71.4806 147.086 72.2697 147.086 73.3874C147.086 74.5014 147.032 75.2904 146.927 75.7545C146.823 76.2148 146.571 76.5397 146.177 76.7254C145.782 76.911 145.121 77.0038 144.193 77.0038C143.256 77 142.591 76.9071 142.2 76.7254ZM145.608 76.0446C145.856 75.9557 146.014 75.7313 146.092 75.3794C146.165 75.0235 146.204 74.3583 146.204 73.3874C146.204 72.4166 146.165 71.7514 146.092 71.3955C146.014 71.0397 145.856 70.8192 145.608 70.7264C145.361 70.6374 144.889 70.5949 144.193 70.5949C143.496 70.5949 143.021 70.6374 142.773 70.7264C142.522 70.8154 142.359 71.0397 142.286 71.3955C142.212 71.7514 142.173 72.4166 142.173 73.3874C142.173 74.3583 142.212 75.0235 142.286 75.3794C142.363 75.7352 142.522 75.9557 142.773 76.0446C143.024 76.1336 143.496 76.18 144.193 76.18C144.889 76.18 145.361 76.1336 145.608 76.0446Z" fill="white"/>
<path d="M157.658 76.9187L155.944 71.3066H155.901L154.199 76.9187H153.151L151.221 69.86H152.122L153.704 75.7081H153.755L155.48 69.86H156.404L158.149 75.7081H158.211L159.739 69.86H160.621L158.702 76.9187H157.658Z" fill="white"/>
<path d="M169.684 76.9187V73.7897H165.978V76.9187H165.096V69.86H165.978V72.9388H169.684V69.86H170.558V76.9187H169.684Z" fill="white"/>
<path d="M175.687 76.9187V69.86H176.569V76.9187H175.687Z" fill="white"/>
<path d="M183.222 76.9187V70.7109H180.986V69.86H186.332V70.7109H184.104V76.9187H183.222Z" fill="white"/>
<path d="M190.753 76.9187V69.86H195.353V70.68H191.639V72.9465H194.861V73.7665H191.639V76.0949H195.353V76.9149H190.753V76.9187Z" fill="white"/>
<path d="M203.526 76.9651C203.209 76.9884 202.911 77 202.64 77C201.793 77 201.174 76.9071 200.783 76.7215C200.393 76.5358 200.134 76.1993 199.998 75.712C199.863 75.2246 199.797 74.4472 199.797 73.3874C199.797 72.3354 199.863 71.5618 199.998 71.0668C200.13 70.5756 200.393 70.2352 200.783 70.0495C201.174 69.8639 201.793 69.7711 202.64 69.7711C202.919 69.7711 203.213 69.7865 203.522 69.8136C203.832 69.8407 204.083 69.8794 204.28 69.9258V70.6955C203.766 70.6258 203.294 70.5949 202.865 70.5949C202.145 70.5949 201.646 70.649 201.36 70.7573C201.077 70.8656 200.888 71.1016 200.799 71.4652C200.71 71.8287 200.664 72.4669 200.664 73.3836C200.664 74.3002 200.706 74.9384 200.799 75.302C200.888 75.6656 201.074 75.9015 201.36 76.0098C201.642 76.1181 202.145 76.1722 202.865 76.1722C203.391 76.1722 203.878 76.1374 204.323 76.0678V76.8569C204.11 76.9071 203.843 76.9419 203.526 76.9651Z" fill="white"/>
<path d="M213.599 76.9187V73.7897H209.893V76.9187H209.011V69.86H209.893V72.9388H213.599V69.86H214.473V76.9187H213.599Z" fill="white"/>
</g>
<path d="M94.019 29.3643C90.4255 29.3643 87.7758 28.1459 86.07 25.7092C84.3641 23.2725 83.5093 19.8611 83.5093 15.4712C83.5093 11.0851 84.3603 7.66984 86.07 5.23313C87.7758 2.79642 90.4255 1.57806 94.019 1.57806C97.6125 1.57806 100.262 2.79642 101.968 5.23313C103.674 7.66984 104.529 11.0812 104.529 15.4712C104.529 19.8572 103.674 23.2725 101.968 25.7092C100.258 28.1459 97.6086 29.3643 94.019 29.3643ZM94.019 24.7075C95.663 24.7075 96.7963 24.0963 97.4268 22.878C98.0535 21.6596 98.3707 19.9578 98.3707 17.7802V13.1234C98.3707 10.9691 98.0573 9.2827 97.4268 8.06048C96.7963 6.84213 95.663 6.23102 94.019 6.23102C92.375 6.23102 91.2417 6.84213 90.6112 8.06048C89.9807 9.27884 89.6674 10.9652 89.6674 13.1234V17.8189C89.6674 19.9733 89.9807 21.6635 90.6112 22.8819C91.2378 24.1002 92.375 24.7075 94.019 24.7075Z" fill="white"/>
<path d="M107.484 0.425446H113.182V12.6631H113.414C113.646 12.0984 113.928 11.5724 114.261 11.0851C114.594 10.5977 115 10.1684 115.472 9.7971C115.947 9.4258 116.497 9.13185 117.127 8.91138C117.754 8.69479 118.466 8.58262 119.262 8.58262C120.21 8.58262 121.084 8.7412 121.881 9.06222C122.678 9.38325 123.355 9.86286 123.92 10.5049C124.484 11.147 124.925 11.9283 125.246 12.8527C125.567 13.7771 125.726 14.8407 125.726 16.0475V28.9001H120.028V16.8171C120.028 14.2528 118.91 12.9687 116.679 12.9687C116.241 12.9687 115.812 13.0267 115.39 13.1427C114.965 13.2588 114.59 13.4367 114.253 13.6804C113.921 13.924 113.657 14.2257 113.464 14.5854C113.271 14.9451 113.174 15.3667 113.174 15.8541V28.9001H107.476V0.425446H107.484Z" fill="white"/>
<path d="M128.511 24.4406H134.824V13.5102H128.511V9.0429H140.522V24.4367H146.37V28.9001H128.511V24.4406ZM137.671 6.50563C136.387 6.50563 135.497 6.24262 134.994 5.7166C134.495 5.19058 134.244 4.55626 134.244 3.80978V2.69198C134.244 1.92229 134.495 1.28024 134.994 0.769691C135.493 0.255274 136.387 0 137.671 0C138.955 0 139.845 0.255274 140.348 0.769691C140.847 1.28411 141.098 1.92229 141.098 2.69198V3.80978C141.098 4.55239 140.847 5.19058 140.348 5.7166C139.845 6.24262 138.955 6.50563 137.671 6.50563Z" fill="white"/>
<path d="M158.996 29.3643C157.457 29.3643 156.072 29.1284 154.838 28.6526C153.604 28.1769 152.559 27.4923 151.701 26.5949C150.842 25.6976 150.181 24.6069 149.72 23.3228C149.26 22.0387 149.028 20.5883 149.028 18.9754C149.028 17.3587 149.26 15.9082 149.72 14.6241C150.181 13.34 150.842 12.2493 151.701 11.352C152.559 10.4547 153.608 9.77005 154.838 9.29432C156.068 8.81858 157.457 8.58264 158.996 8.58264C160.536 8.58264 161.92 8.81858 163.154 9.29432C164.384 9.77005 165.433 10.4547 166.291 11.352C167.15 12.2493 167.812 13.34 168.272 14.6241C168.732 15.9082 168.964 17.3587 168.964 18.9754C168.964 20.5921 168.732 22.0426 168.272 23.3228C167.812 24.6069 167.15 25.6976 166.291 26.5949C165.433 27.4923 164.384 28.1807 163.154 28.6526C161.924 29.1284 160.536 29.3643 158.996 29.3643ZM158.996 25.1329C160.28 25.1329 161.278 24.7345 161.998 23.9378C162.717 23.141 163.077 22.0155 163.077 20.5496V17.3935C163.077 15.9314 162.717 14.8021 161.998 14.0053C161.278 13.2085 160.28 12.814 158.996 12.814C157.712 12.814 156.714 13.2124 155.994 14.0053C155.275 14.8021 154.915 15.9314 154.915 17.3935V20.5496C154.915 22.0116 155.275 23.141 155.994 23.9378C156.714 24.7345 157.716 25.1329 158.996 25.1329Z" fill="white"/>
<path d="M93.5934 61.8576C91.3344 61.8576 89.3733 61.4901 87.7022 60.7514C86.0351 60.0127 84.6851 59.007 83.66 57.7345L87.0098 54.0446C87.9846 55.1238 89.0561 55.9167 90.2243 56.4311C91.3924 56.9455 92.58 57.2008 93.783 57.2008C95.1677 57.2008 96.2199 56.8913 96.9394 56.2686C97.6588 55.6498 98.0186 54.7563 98.0186 53.5882C98.0186 52.6329 97.7439 51.9058 97.1908 51.4145C96.6376 50.9233 95.7093 50.5714 94.4019 50.3664L91.5936 49.9061C89.1799 49.4961 87.4353 48.6065 86.36 47.2335C85.2808 45.8643 84.7431 44.1895 84.7431 42.2169C84.7431 39.6294 85.5902 37.6259 87.2845 36.2025C88.9787 34.7792 91.3499 34.0675 94.4057 34.0675C96.4829 34.0675 98.2932 34.3847 99.8327 35.0228C101.372 35.661 102.618 36.5236 103.565 37.6181L100.293 41.2655C99.5736 40.4687 98.7264 39.8499 97.7517 39.3973C96.7769 38.9487 95.6745 38.7243 94.4405 38.7243C91.8489 38.7243 90.5531 39.7996 90.5531 41.9462C90.5531 42.8783 90.8432 43.5784 91.4195 44.0425C91.9959 44.5105 92.9397 44.8586 94.2471 45.0907L97.0554 45.5897C99.237 45.9726 100.916 46.7964 102.099 48.0496C103.279 49.3066 103.871 50.9968 103.871 53.1241C103.871 54.3811 103.654 55.5415 103.217 56.6013C102.78 57.6649 102.127 58.5893 101.252 59.3706C100.378 60.1519 99.3105 60.763 98.0379 61.1962C96.7692 61.6371 95.2877 61.8576 93.5934 61.8576Z" fill="white"/>
<path d="M118.071 61.3935C116.017 61.3935 114.493 60.8558 113.491 59.7806C112.489 58.7053 111.99 57.3361 111.99 55.673V45.9996H106.602V41.5362H110.103C110.95 41.5362 111.553 41.3699 111.913 41.0373C112.273 40.7046 112.451 40.0897 112.451 39.1885V34.5316H117.684V41.5362H125.421V45.9996H117.684V56.93H125.421V61.3935H118.071Z" fill="white"/>
<path d="M141.612 57.7771H141.38C140.943 58.9065 140.259 59.8695 139.323 60.6624C138.386 61.4592 137.122 61.8537 135.532 61.8537C134.58 61.8537 133.71 61.6951 132.913 61.3741C132.116 61.0531 131.439 60.5735 130.875 59.9314C130.31 59.2894 129.869 58.5081 129.548 57.5837C129.227 56.6593 129.068 55.5956 129.068 54.3889V41.5362H134.766V53.6192C134.766 56.1835 135.88 57.4677 138.116 57.4677C138.553 57.4677 138.982 57.4096 139.404 57.2936C139.825 57.1776 140.201 56.9997 140.518 56.756C140.839 56.5123 141.102 56.2106 141.307 55.8509C141.512 55.4912 141.616 55.0696 141.616 54.5823V41.5362H147.314V61.3935H141.612V57.7771Z" fill="white"/>
<path d="M164.268 57.7423H163.997C163.483 58.9606 162.771 59.9469 161.862 60.7127C160.949 61.4747 159.7 61.8576 158.11 61.8576C157.008 61.8576 155.998 61.6526 155.089 61.2426C154.176 60.8326 153.395 60.2022 152.741 59.3552C152.087 58.5081 151.573 57.4329 151.202 56.1217C150.83 54.8144 150.645 53.2595 150.645 51.4649C150.645 49.6702 150.83 48.1153 151.202 46.808C151.573 45.5007 152.087 44.4216 152.741 43.5746C153.395 42.7275 154.176 42.1009 155.089 41.6871C155.998 41.2771 157.008 41.0721 158.11 41.0721C158.907 41.0721 159.611 41.1765 160.226 41.3815C160.841 41.5904 161.386 41.8727 161.862 42.2363C162.338 42.5999 162.748 43.0331 163.096 43.5359C163.44 44.0426 163.742 44.5918 164.001 45.1874H164.272V32.9149H169.97V61.3935H164.272V57.7423H164.268ZM160.574 57.3903C161.576 57.3903 162.442 57.1466 163.174 56.6632C163.905 56.1797 164.272 55.4139 164.272 54.3696V48.5563C164.272 47.512 163.905 46.7461 163.174 46.2627C162.442 45.7792 161.576 45.5355 160.574 45.5355C159.29 45.5355 158.304 45.9262 157.611 46.7036C156.919 47.481 156.571 48.5563 156.571 49.9332V52.9926C156.571 54.3696 156.915 55.4487 157.611 56.2261C158.304 57.0035 159.29 57.3903 160.574 57.3903Z" fill="white"/>
<path d="M173.385 56.93H179.698V45.9996H173.385V41.5362H185.396V56.93H191.245V61.3934H173.385V56.93ZM182.545 38.9951C181.261 38.9951 180.371 38.7321 179.869 38.206C179.37 37.68 179.118 37.0457 179.118 36.2992V35.1814C179.118 34.4117 179.37 33.7697 179.869 33.2591C180.367 32.7447 181.261 32.4894 182.545 32.4894C183.829 32.4894 184.719 32.7447 185.222 33.2591C185.721 33.7735 185.972 34.4117 185.972 35.1814V36.2992C185.972 37.0418 185.721 37.68 185.222 38.206C184.719 38.7321 183.829 38.9951 182.545 38.9951Z" fill="white"/>
<path d="M203.634 61.8576C202.095 61.8576 200.71 61.6217 199.476 61.1459C198.246 60.6702 197.198 59.9856 196.339 59.0883C195.48 58.1909 194.819 57.1002 194.358 55.8161C193.898 54.532 193.666 53.0816 193.666 51.4687C193.666 49.852 193.898 48.4016 194.358 47.1174C194.819 45.8333 195.48 44.7426 196.339 43.8453C197.198 42.948 198.246 42.2634 199.476 41.7876C200.706 41.3119 202.095 41.076 203.634 41.076C205.174 41.076 206.559 41.3119 207.792 41.7876C209.023 42.2634 210.071 42.948 210.929 43.8453C211.788 44.7426 212.45 45.8333 212.91 47.1174C213.37 48.4016 213.602 49.852 213.602 51.4687C213.602 53.0855 213.37 54.5359 212.91 55.8161C212.45 57.1002 211.788 58.1909 210.929 59.0883C210.071 59.9856 209.023 60.6741 207.792 61.1459C206.559 61.6178 205.174 61.8576 203.634 61.8576ZM203.634 57.6224C204.918 57.6224 205.916 57.224 206.636 56.4272C207.355 55.6305 207.715 54.5049 207.715 53.039V49.8829C207.715 48.4209 207.355 47.2915 206.636 46.4947C205.916 45.698 204.918 45.3035 203.634 45.3035C202.35 45.3035 201.352 45.7018 200.633 46.4947C199.913 47.2915 199.553 48.4209 199.553 49.8829V53.039C199.553 54.5011 199.913 55.6305 200.633 56.4272C201.348 57.224 202.35 57.6224 203.634 57.6224Z" fill="white"/>
<defs>
<clipPath id="clip0">
<rect width="214.469" height="77" fill="white"/>
</clipPath>
</defs>
</svg>
