<svg width="85" height="96" viewBox="0 0 85 96" fill="none" xmlns="http://www.w3.org/2000/svg">
<path fill-rule="evenodd" clip-rule="evenodd" d="M47.6602 48.0145L84.9995 69.7422V26.2579L47.6602 48.0145ZM57.8956 48.0145L79.8532 60.7972V35.2029L57.8956 48.0145Z" fill="black"/>
<path fill-rule="evenodd" clip-rule="evenodd" d="M45.0586 43.4843L82.3694 21.7277L45.0586 0V43.4843ZM50.1763 34.5393L72.1054 21.7277L50.2049 8.945L50.1763 34.5393Z" fill="black"/>
<path fill-rule="evenodd" clip-rule="evenodd" d="M39.9117 43.5131L39.8831 0L2.57227 21.7566L39.9117 43.5131ZM34.7653 34.5393L34.7368 8.97386L12.8363 21.7566L34.7653 34.5393Z" fill="black"/>
<path fill-rule="evenodd" clip-rule="evenodd" d="M37.3394 48.0144L0 26.2867V69.7421L37.3394 48.0144ZM27.0753 48.0144L5.11773 35.2317V60.7971L27.0753 48.0144Z" fill="black"/>
<path fill-rule="evenodd" clip-rule="evenodd" d="M39.9124 52.5157L2.60156 74.2723L39.9124 96V52.5157ZM34.7946 61.4896L12.8656 74.3011L34.7946 87.0838V61.4896Z" fill="black"/>
<path fill-rule="evenodd" clip-rule="evenodd" d="M45.0586 52.5157L45.0872 96L82.398 74.2723L45.0586 52.5157ZM50.2049 61.4896L50.2335 87.055L72.1625 74.2723L50.2049 61.4896Z" fill="black"/>
</svg>
