<svg width="29" height="33" viewBox="0 0 29 33" fill="none" xmlns="http://www.w3.org/2000/svg">
<path fill-rule="evenodd" clip-rule="evenodd" d="M16.2598 16.5052L28.9991 23.9741V9.02637L16.2598 16.5052ZM19.7519 16.5052L27.2433 20.8992V12.1012L19.7519 16.5052Z" fill="black"/>
<path fill-rule="evenodd" clip-rule="evenodd" d="M15.373 14.9477L28.1026 7.4689L15.373 0V14.9477ZM17.1191 11.8729L24.6008 7.4689L17.1288 3.07484L17.1191 11.8729Z" fill="black"/>
<path fill-rule="evenodd" clip-rule="evenodd" d="M13.6173 14.9576L13.6075 0L0.87793 7.47882L13.6173 14.9576ZM11.8615 11.8729L11.8517 3.08476L4.37978 7.47882L11.8615 11.8729Z" fill="black"/>
<path fill-rule="evenodd" clip-rule="evenodd" d="M12.7393 16.505L0 9.03613V23.9739L12.7393 16.505ZM9.23747 16.505L1.74605 12.111V20.8991L9.23747 16.505Z" fill="black"/>
<path fill-rule="evenodd" clip-rule="evenodd" d="M13.6173 18.0522L0.887695 25.5311L13.6173 33V18.0522ZM11.8712 21.137L4.38955 25.541L11.8712 29.935V21.137Z" fill="black"/>
<path fill-rule="evenodd" clip-rule="evenodd" d="M15.373 18.0522L15.3828 33L28.1124 25.5311L15.373 18.0522ZM17.1288 21.137L17.1386 29.9251L24.6203 25.5311L17.1288 21.137Z" fill="black"/>
</svg>
